<svg width="50" height="48" viewBox="0 0 50 48" fill="none" xmlns="http://www.w3.org/2000/svg">
<path d="M45.3359 21.9399H38.2057V36.5187C38.2057 37.3195 38.1092 38.101 37.9355 38.8536H45.3359C47.2752 38.8536 48.8575 37.2713 48.8575 35.3319V25.4713C48.8575 23.5319 47.2752 21.9496 45.3359 21.9496V21.9399Z" stroke="white" stroke-miterlimit="10"/>
<path d="M27.8337 16.8745H1.04004V36.5283C1.04004 42.2498 5.68092 46.8907 11.4024 46.8907H27.8337C33.5552 46.8907 38.196 42.2498 38.196 36.5283V16.8745H27.8337V16.8745Z" stroke="white" stroke-miterlimit="10"/>
<path d="M28.4898 13.623C28.4898 13.623 29.3581 7.77607 22.9709 7.77607C22.9709 7.77607 18.002 8.32603 18.002 0.838867" stroke="white" stroke-miterlimit="10"/>
<path d="M18.4937 13.623C18.4937 13.623 19.362 7.77607 12.9748 7.77607C12.9748 7.77607 8.00586 8.32603 8.00586 0.838867" stroke="white" stroke-miterlimit="10"/>
</svg>
