<svg width="62" height="62" viewBox="0 0 62 62" fill="none" xmlns="http://www.w3.org/2000/svg">
<path d="M46.2978 2H38.857C31.2838 2 25.1445 8.13926 25.1445 15.7124V46.2876C25.1445 53.8607 31.2838 60 38.857 60H46.2978C53.871 60 60.0102 53.8607 60.0102 46.2876V15.7124C60.0102 8.13926 53.871 2 46.2978 2Z" stroke="#00B0B8" stroke-width="2.28" stroke-miterlimit="10"/>
<path d="M23.163 2H15.7222C8.14903 2 2.00977 8.13926 2.00977 15.7124V46.2876C2.00977 53.8607 8.14903 60 15.7222 60H23.163C30.7362 60 36.8755 53.8607 36.8755 46.2876V15.7124C36.8755 8.13926 30.7362 2 23.163 2Z" stroke="#00B0B8" stroke-width="2.28" stroke-miterlimit="10"/>
</svg>
