<svg width="107" height="107" viewBox="0 0 107 107" fill="none" xmlns="http://www.w3.org/2000/svg">
<path d="M82.6667 1.48608H24.3333C11.4467 1.48608 1 11.9328 1 24.8194C1 37.7061 11.4467 48.1528 24.3333 48.1528H82.6667C95.5533 48.1528 106 37.7061 106 24.8194C106 11.9328 95.5533 1.48608 82.6667 1.48608Z" stroke="white" stroke-miterlimit="10"/>
<path d="M81.6947 48.1528C94.5813 48.1528 105.028 37.7061 105.028 24.8194C105.028 11.9328 94.5813 1.48608 81.6947 1.48608C68.808 1.48608 58.3613 11.9328 58.3613 24.8194C58.3613 37.7061 68.808 48.1528 81.6947 48.1528Z" stroke="white" stroke-width="0.99" stroke-miterlimit="10"/>
<path d="M82.6667 58.8472H24.3333C11.4467 58.8472 1 69.2939 1 82.1805C1 95.0671 11.4467 105.514 24.3333 105.514H82.6667C95.5533 105.514 106 95.0671 106 82.1805C106 69.2939 95.5533 58.8472 82.6667 58.8472Z" stroke="white" stroke-miterlimit="10"/>
<path d="M24.3333 105.514C37.22 105.514 47.6667 95.0671 47.6667 82.1805C47.6667 69.2939 37.22 58.8472 24.3333 58.8472C11.4467 58.8472 1 69.2939 1 82.1805C1 95.0671 11.4467 105.514 24.3333 105.514Z" stroke="white" stroke-width="0.99" stroke-miterlimit="10"/>
</svg>
