<svg width="108" height="108" viewBox="0 0 108 108" fill="none" xmlns="http://www.w3.org/2000/svg">
<path d="M87.802 5.39999L45.2565 47.9456C42.2741 50.9279 42.2741 55.7632 45.2565 58.7456L48.9792 62.4683C51.9615 65.4507 56.7969 65.4507 59.7792 62.4683L102.325 19.9228C105.307 16.9404 105.307 12.1051 102.325 9.12273L98.6021 5.39999C95.6197 2.41765 90.7844 2.41764 87.802 5.39999Z" stroke="white" stroke-miterlimit="10"/>
<path d="M31.0752 77.5811L37.7959 54.584L52.0667 69.7804L31.0752 77.5811Z" stroke="white" stroke-miterlimit="10"/>
<path d="M101.281 66.9842V96.8081C101.281 102.41 96.6911 107 91.0889 107H11.192C5.58978 107 1 102.41 1 96.8081V22.6966C1 17.0944 5.58978 12.5046 11.192 12.5046H39.0874" stroke="white" stroke-miterlimit="10"/>
</svg>
